# xmcd
# 
# Track frame offsets:
#     150
#     24133
#     43491
#     63160
#     81024
#     95762
#     120735
#     143549
#     159419
#     181673
#     201301
#     220397
#     238865
#     260240
# 
# Disc length: 3868
# 
# Revision: 1
# Processed by: cddbd v1.5.2PL0 Copyright (c) Steve Scherf et al.
# Submitted via: fre:ac v1.0.31
# 
DISCID=c60f1a0e
DTITLE=Carlos Santana - Playlist - The Very Best Of Santana
DYEAR=2015
DGENRE=Blues
TTITLE0=Black Magic Woman - Gypsy Queen
TTITLE1=Oye Como Va
TTITLE2=Jingo
TTITLE3=Evil Ways
TTITLE4=Everything's Coming Our Way
TTITLE5=No One To Depend On
TTITLE6=Europa (Earth's Cry Heaven's Smile)
TTITLE7=Everybody's Everything
TTITLE8=Smooth (Feat. Rob Thomas)
TTITLE9=Maria Maria (Feat. The Product G&B)
TTITLE10=The Game Of Love (Feat. Michelle Branch)
TTITLE11=Yo Soy La Luz (Feat. Wayne Shorter and Cindy Blackman Santana)
TTITLE12=Samba Pa Ti
TTITLE13=Soul Sacrifice
EXTD=
EXTT0=
EXTT1=
EXTT2=
EXTT3=
EXTT4=
EXTT5=
EXTT6=
EXTT7=
EXTT8=
EXTT9=
EXTT10=
EXTT11=
EXTT12=
EXTT13=
PLAYORDER=
